<svg width="40" height="41" viewBox="0 0 40 41" fill="none" xmlns="http://www.w3.org/2000/svg">
<rect y="0.5" width="40" height="40" rx="20" fill="#DDF7D0"/>
<path fill-rule="evenodd" clip-rule="evenodd" d="M14.0004 16.5C14.0004 13.1863 16.6867 10.5 20.0004 10.5C23.3141 10.5 26.0004 13.1863 26.0004 16.5C26.0004 19.8137 23.3141 22.5 20.0004 22.5C16.6867 22.5 14.0004 19.8137 14.0004 16.5Z" fill="#50BB27"/>
<path fill-rule="evenodd" clip-rule="evenodd" d="M9.0021 35.3071C9.10522 29.3208 13.9898 24.5 20.0004 24.5C26.0113 24.5 30.8959 29.321 30.9988 35.3075C31.0056 35.7046 30.7769 36.068 30.416 36.2336C27.2441 37.6891 23.7158 38.5 20.0009 38.5C16.2856 38.5 12.757 37.6889 9.58487 36.2332C9.22398 36.0676 8.99526 35.7041 9.0021 35.3071Z" fill="#50BB27"/>
</svg>
