<svg width="25" height="25" viewBox="0 0 25 25" fill="none" xmlns="http://www.w3.org/2000/svg">
<path d="M16.9785 4.40805C17.2073 4.13731 17.4904 3.91694 17.8096 3.76097C18.1289 3.60501 18.4773 3.51688 18.8328 3.5022C19.1882 3.48751 19.5428 3.5466 19.874 3.6757C20.2052 3.80479 20.5056 4.00106 20.7563 4.252C21.0069 4.50293 21.2023 4.80302 21.3298 5.13315C21.4573 5.46328 21.5143 5.81619 21.497 6.16941C21.4797 6.52262 21.3886 6.86838 21.2295 7.18466C21.0703 7.50093 20.8467 7.78078 20.5727 8.00636L8.4421 20.1506L3.5 21.5L4.84785 16.5523L16.9785 4.40805Z" stroke="#1F203F" stroke-width="2" stroke-linecap="round" stroke-linejoin="round"/>
<path d="M15.5 6.5L18.5 9.5" stroke="#1F203F" stroke-width="2" stroke-linecap="round" stroke-linejoin="round"/>
</svg>
