<svg width="20" height="20" viewBox="0 0 20 20" fill="none" xmlns="http://www.w3.org/2000/svg">
<rect width="20" height="20" rx="10" fill="#EE3300"/>
<g clip-path="url(#clip0_2858_1868)">
<rect width="12" height="12" transform="translate(4 4)" fill="#EE3300"/>
<path d="M13.5 9.5H6.5C5.94772 9.5 5.5 9.94772 5.5 10.5V14C5.5 14.5523 5.94772 15 6.5 15H13.5C14.0523 15 14.5 14.5523 14.5 14V10.5C14.5 9.94772 14.0523 9.5 13.5 9.5Z" stroke="white" stroke-width="1.66667" stroke-linecap="round" stroke-linejoin="round"/>
<path d="M7.5 9.5V7.5C7.5 6.83696 7.76339 6.20107 8.23223 5.73223C8.70107 5.26339 9.33696 5 10 5C10.663 5 11.2989 5.26339 11.7678 5.73223C12.2366 6.20107 12.5 6.83696 12.5 7.5V9.5" stroke="white" stroke-width="1.66667" stroke-linecap="round" stroke-linejoin="round"/>
</g>
<defs>
<clipPath id="clip0_2858_1868">
<rect width="12" height="12" fill="white" transform="translate(4 4)"/>
</clipPath>
</defs>
</svg>
