<svg width="41" height="40" viewBox="0 0 41 40" fill="none" xmlns="http://www.w3.org/2000/svg">
<path d="M0.5 20C0.5 8.95431 9.45431 0 20.5 0C31.5457 0 40.5 8.95431 40.5 20C40.5 31.0457 31.5457 40 20.5 40C9.45431 40 0.5 31.0457 0.5 20Z" fill="white"/>
<path d="M17.8008 14.2002C18.5829 14.7768 19.5291 15.0879 20.5008 15.0879C21.4725 15.0879 22.4187 14.7768 23.2008 14.2002" stroke="#50BB27" stroke-width="2" stroke-linecap="round" stroke-linejoin="round"/>
<path d="M16.3984 18.7002C17.2984 19.5002 18.7984 20.0002 20.4984 20.0002C22.1984 20.0002 23.6984 19.5002 24.5984 18.7002" stroke="#50BB27" stroke-width="2" stroke-linecap="round" stroke-linejoin="round"/>
<path d="M22.4 11.5003C22.333 11.0516 22.11 10.6408 21.7702 10.3401C21.4304 10.0394 20.9955 9.86807 20.542 9.85614C20.0884 9.8442 19.6451 9.99245 19.29 10.2748C18.9348 10.5572 18.6905 10.9557 18.6 11.4003L15.6 21.4003C15.5 21.6003 15.5 21.8003 15.5 22.0003C15.5 23.7003 17.7 25.0003 20.5 25.0003C23.3 25.0003 25.5 23.7003 25.5 22.0003C25.5 21.8003 25.5 21.6003 25.4 21.5003L22.4 11.5003Z" stroke="#50BB27" stroke-width="2" stroke-linecap="round" stroke-linejoin="round"/>
<path d="M16 20.1996L11.3 22.8996C10.8 23.1996 10.5 23.5996 10.5 23.9996C10.5 24.3996 10.8 24.7996 11.3 25.0996L18.9 29.5996C19.8 30.0996 21 30.0996 21.9 29.5996L29.5 25.0996C30.2 24.7996 30.5 24.3996 30.5 23.9996C30.5 23.5996 30.2 23.1996 29.7 22.8996L25 20.0996" stroke="#50BB27" stroke-width="2" stroke-linecap="round" stroke-linejoin="round"/>
</svg>
