<svg width="68" height="68" viewBox="0 0 68 68" fill="none" xmlns="http://www.w3.org/2000/svg">
<path d="M0 34C0 15.2223 15.2223 0 34 0C52.7777 0 68 15.2223 68 34C68 52.7777 52.7777 68 34 68C15.2223 68 0 52.7777 0 34Z" fill="#F3F4F8"/>
<path d="M32.1667 39.5001H35.8333C36.8058 39.5001 37.7384 39.1138 38.4261 38.4261C39.1137 37.7385 39.5 36.8059 39.5 35.8334C39.5 34.861 39.1137 33.9283 38.4261 33.2407C37.7384 32.5531 36.8058 32.1667 35.8333 32.1667H30.3333C29.2333 32.1667 28.3167 32.5334 27.7667 33.2667L17.5 43.1667" stroke="#1F203F" stroke-width="3" stroke-linecap="round" stroke-linejoin="round"/>
<path d="M24.833 50.5L27.7663 47.9333C28.3163 47.2 29.233 46.8333 30.333 46.8333H37.6663C39.683 46.8333 41.5163 46.1 42.7997 44.6333L51.233 36.5667C51.9405 35.8981 52.3534 34.9759 52.3809 34.0029C52.4084 33.0299 52.0482 32.0858 51.3797 31.3783C50.7111 30.6709 49.7889 30.258 48.8159 30.2305C47.8429 30.203 46.8988 30.5631 46.1913 31.2317L38.4913 38.3817" stroke="#1F203F" stroke-width="3" stroke-linecap="round" stroke-linejoin="round"/>
<path d="M15.667 41.3333L26.667 52.3333" stroke="#1F203F" stroke-width="3" stroke-linecap="round" stroke-linejoin="round"/>
<path d="M41.3333 33.8167C44.2696 33.8167 46.6499 31.4363 46.6499 28.5C46.6499 25.5637 44.2696 23.1833 41.3333 23.1833C38.397 23.1833 36.0166 25.5637 36.0166 28.5C36.0166 31.4363 38.397 33.8167 41.3333 33.8167Z" stroke="#1F203F" stroke-width="3" stroke-linecap="round" stroke-linejoin="round"/>
<path d="M23 26.6667C26.0376 26.6667 28.5 24.2043 28.5 21.1667C28.5 18.1292 26.0376 15.6667 23 15.6667C19.9624 15.6667 17.5 18.1292 17.5 21.1667C17.5 24.2043 19.9624 26.6667 23 26.6667Z" stroke="#1F203F" stroke-width="3" stroke-linecap="round" stroke-linejoin="round"/>
</svg>
