<svg width="68" height="68" viewBox="0 0 68 68" fill="none" xmlns="http://www.w3.org/2000/svg">
<path d="M0 34C0 15.2223 15.2223 0 34 0C52.7777 0 68 15.2223 68 34C68 52.7777 52.7777 68 34 68C15.2223 68 0 52.7777 0 34Z" fill="#F3F4F8"/>
<path d="M30.333 24.8333L39.4997 30.3333L30.333 35.8333V24.8333Z" stroke="#1F203F" stroke-width="3" stroke-linecap="round" stroke-linejoin="round"/>
<path d="M48.667 17.5H19.3337C17.3086 17.5 15.667 19.1416 15.667 21.1667V39.5C15.667 41.525 17.3086 43.1667 19.3337 43.1667H48.667C50.692 43.1667 52.3337 41.525 52.3337 39.5V21.1667C52.3337 19.1416 50.692 17.5 48.667 17.5Z" stroke="#1F203F" stroke-width="3" stroke-linecap="round" stroke-linejoin="round"/>
<path d="M34 43.1667V50.5001" stroke="#1F203F" stroke-width="3" stroke-linecap="round" stroke-linejoin="round"/>
<path d="M26.667 50.5H41.3337" stroke="#1F203F" stroke-width="3" stroke-linecap="round" stroke-linejoin="round"/>
</svg>
