<svg width="41" height="40" viewBox="0 0 41 40" fill="none" xmlns="http://www.w3.org/2000/svg">
<path d="M0.5 20C0.5 8.95431 9.45431 0 20.5 0C31.5457 0 40.5 8.95431 40.5 20C40.5 31.0457 31.5457 40 20.5 40C9.45431 40 0.5 31.0457 0.5 20Z" fill="white"/>
<path d="M28.5 16H12.5C11.9477 16 11.5 16.4477 11.5 17V19C11.5 19.5523 11.9477 20 12.5 20H28.5C29.0523 20 29.5 19.5523 29.5 19V17C29.5 16.4477 29.0523 16 28.5 16Z" stroke="#50BB27" stroke-width="2" stroke-linecap="round" stroke-linejoin="round"/>
<path d="M20.5 16V29" stroke="#50BB27" stroke-width="2" stroke-linecap="round" stroke-linejoin="round"/>
<path d="M27.5 20V27C27.5 27.5304 27.2893 28.0391 26.9142 28.4142C26.5391 28.7893 26.0304 29 25.5 29H15.5C14.9696 29 14.4609 28.7893 14.0858 28.4142C13.7107 28.0391 13.5 27.5304 13.5 27V20" stroke="#50BB27" stroke-width="2" stroke-linecap="round" stroke-linejoin="round"/>
<path d="M16 16C15.337 16 14.7011 15.7366 14.2322 15.2678C13.7634 14.7989 13.5 14.1631 13.5 13.5C13.5 12.837 13.7634 12.2011 14.2322 11.7322C14.7011 11.2634 15.337 11 16 11C16.9647 10.9832 17.91 11.4513 18.7127 12.3432C19.5154 13.2351 20.1383 14.5094 20.5 16C20.8617 14.5094 21.4846 13.2351 22.2873 12.3432C23.09 11.4513 24.0353 10.9832 25 11C25.663 11 26.2989 11.2634 26.7678 11.7322C27.2366 12.2011 27.5 12.837 27.5 13.5C27.5 14.1631 27.2366 14.7989 26.7678 15.2678C26.2989 15.7366 25.663 16 25 16" stroke="#50BB27" stroke-width="2" stroke-linecap="round" stroke-linejoin="round"/>
</svg>
